# xmcd CD database file
#
# Track frame offsets:
#	150
#	10266
#	19698
#	30354
#	39434
#	49314
#	60563
#	72827
#	85465
#	95402
#	103714
#	115314
#	127142
#	139587
#	149897
#	162717
#	173356
#	183231
#	196016
#	205647
#	212921
#	222936
#	233995
#	244244
#
# Disc length: 3398 seconds
#
# Revision: 0
# Processed by: cddbd v1.5.1PL0 Copyright (c) Steve Scherf et al.
# Submitted via: CDex 1.40Release
#
DISCID=5c0d4418
DTITLE=Autry Inman - Be Bop Baby
DYEAR=1900
DGENRE=Country
TTITLE0=Be Bop Baby
TTITLE1=It Would Be A Daggone Lie
TTITLE2=Uh Huh Honey
TTITLE3=Dreamboat
TTITLE4=Mary Nell
TTITLE5=Happy Go Lucky
TTITLE6=Pucker Up
TTITLE7=You Said Goodbye
TTITLE8=Big Sam
TTITLE9=The Volunteer
TTITLE10=Footsteps Of The Bride
TTITLE11=The Hard Way
TTITLE12=Just Smile As You Go By
TTITLE13=Who Do You Love
TTITLE14=Let's Take The Long Way Home
TTITLE15=You Gotta Leave Those Other Guys Alone
TTITLE16=Blue Monday
TTITLE17=Back To Dixie
TTITLE18=Tell Me Now
TTITLE19=Sharon Sharon
TTITLE20=Look Over Your Shoulder
TTITLE21=Under The Moon
TTITLE22=Just Reminiscing
TTITLE23=That's When I Need You The Most
EXTD=ID3G: 2
EXTT0=
EXTT1=
EXTT2=
EXTT3=
EXTT4=
EXTT5=
EXTT6=
EXTT7=
EXTT8=
EXTT9=
EXTT10=
EXTT11=
EXTT12=
EXTT13=
EXTT14=
EXTT15=
EXTT16=
EXTT17=
EXTT18=
EXTT19=
EXTT20=
EXTT21=
EXTT22=
EXTT23=
PLAYORDER=
